<?xml version="1.0" encoding="UTF-8"?>
<svg xmlns="http://www.w3.org/2000/svg" xmlns:xlink="http://www.w3.org/1999/xlink" width="800pt" height="800pt" viewBox="0 0 800 800" version="1.1">
<g id="surface13">
<path style="fill:none;stroke-width:2;stroke-linecap:butt;stroke-linejoin:miter;stroke:rgb(0%,0%,0%);stroke-opacity:0.501961;stroke-miterlimit:10;" d="M 50 0 C 50 27.613281 27.613281 50 0 50 C -27.613281 50 -50 27.613281 -50 0 C -50 -27.613281 -27.613281 -50 0 -50 C 27.613281 -50 50 -27.613281 50 0 Z M 50 0 " transform="matrix(1,0,0,1,400,400)"/>
<path style="fill:none;stroke-width:2;stroke-linecap:butt;stroke-linejoin:miter;stroke:rgb(0%,0%,0%);stroke-opacity:0.501961;stroke-miterlimit:10;" d="M 0 0 L 50 0 " transform="matrix(1,0,0,1,400,400)"/>
<path style="fill:none;stroke-width:2;stroke-linecap:butt;stroke-linejoin:miter;stroke:rgb(0%,0%,0%);stroke-opacity:0.501961;stroke-miterlimit:10;" d="M 0 0 L 0 50 " transform="matrix(1,0,0,1,400,400)"/>
<path style=" stroke:none;fill-rule:nonzero;fill:rgb(0%,0%,0%);fill-opacity:1;" d="M 368.773438 412 L 368.773438 404.84375 L 371.472656 404.84375 C 371.945313 404.847656 372.308594 404.867188 372.5625 404.910156 C 372.910156 404.972656 373.203125 405.085938 373.441406 405.246094 C 373.679688 405.414063 373.871094 405.644531 374.015625 405.9375 C 374.160156 406.234375 374.234375 406.558594 374.234375 406.914063 C 374.234375 407.523438 374.039063 408.039063 373.652344 408.457031 C 373.265625 408.882813 372.566406 409.09375 371.554688 409.089844 L 369.71875 409.089844 L 369.71875 412 Z M 369.71875 408.246094 L 371.570313 408.246094 C 372.179688 408.25 372.613281 408.136719 372.871094 407.90625 C 373.125 407.679688 373.253906 407.359375 373.257813 406.941406 C 373.253906 406.644531 373.179688 406.386719 373.03125 406.171875 C 372.878906 405.960938 372.679688 405.820313 372.433594 405.75 C 372.273438 405.710938 371.980469 405.691406 371.550781 405.6875 L 369.71875 405.6875 Z M 369.71875 408.246094 "/>
<path style=" stroke:none;fill-rule:nonzero;fill:rgb(0%,0%,0%);fill-opacity:1;" d="M 375.332031 409.40625 C 375.328125 408.449219 375.59375 407.738281 376.132813 407.273438 C 376.574219 406.890625 377.121094 406.699219 377.765625 406.695313 C 378.476563 406.699219 379.058594 406.933594 379.511719 407.398438 C 379.964844 407.867188 380.191406 408.511719 380.191406 409.335938 C 380.191406 410.003906 380.089844 410.527344 379.890625 410.910156 C 379.6875 411.292969 379.394531 411.589844 379.015625 411.800781 C 378.628906 412.011719 378.214844 412.117188 377.765625 412.117188 C 377.039063 412.117188 376.449219 411.886719 376.003906 411.417969 C 375.550781 410.957031 375.328125 410.285156 375.332031 409.40625 Z M 376.234375 409.40625 C 376.230469 410.074219 376.375 410.570313 376.667969 410.898438 C 376.957031 411.230469 377.324219 411.398438 377.765625 411.394531 C 378.199219 411.398438 378.558594 411.230469 378.851563 410.898438 C 379.140625 410.566406 379.289063 410.0625 379.289063 409.378906 C 379.289063 408.738281 379.140625 408.25 378.851563 407.921875 C 378.554688 407.59375 378.195313 407.429688 377.765625 407.425781 C 377.324219 407.429688 376.957031 407.59375 376.667969 407.917969 C 376.375 408.25 376.230469 408.746094 376.234375 409.40625 Z M 376.234375 409.40625 "/>
<path style=" stroke:none;fill-rule:nonzero;fill:rgb(0%,0%,0%);fill-opacity:1;" d="M 381.664063 405.851563 L 381.664063 404.84375 L 382.542969 404.84375 L 382.542969 405.851563 Z M 381.664063 412 L 381.664063 406.8125 L 382.542969 406.8125 L 382.542969 412 Z M 381.664063 412 "/>
<path style=" stroke:none;fill-rule:nonzero;fill:rgb(0%,0%,0%);fill-opacity:1;" d="M 384.660156 412 L 384.660156 406.8125 L 385.449219 406.8125 L 385.449219 407.550781 C 385.828125 406.984375 386.378906 406.699219 387.101563 406.695313 C 387.410156 406.699219 387.699219 406.753906 387.960938 406.867188 C 388.222656 406.980469 388.417969 407.128906 388.550781 407.308594 C 388.679688 407.492188 388.769531 407.707031 388.824219 407.957031 C 388.855469 408.121094 388.875 408.40625 388.875 408.8125 L 388.875 412 L 387.992188 412 L 387.992188 408.84375 C 387.988281 408.488281 387.957031 408.222656 387.890625 408.042969 C 387.820313 407.871094 387.699219 407.730469 387.527344 407.621094 C 387.351563 407.519531 387.144531 407.464844 386.914063 407.460938 C 386.535156 407.464844 386.214844 407.582031 385.945313 407.816406 C 385.671875 408.054688 385.535156 408.507813 385.539063 409.167969 L 385.539063 412 Z M 384.660156 412 "/>
<path style=" stroke:none;fill-rule:nonzero;fill:rgb(0%,0%,0%);fill-opacity:1;" d="M 392.578125 411.214844 L 392.703125 411.992188 C 392.453125 412.046875 392.234375 412.070313 392.039063 412.070313 C 391.71875 412.070313 391.46875 412.019531 391.296875 411.917969 C 391.117188 411.816406 390.996094 411.683594 390.925781 411.519531 C 390.855469 411.355469 390.820313 411.011719 390.820313 410.480469 L 390.820313 407.5 L 390.175781 407.5 L 390.175781 406.8125 L 390.820313 406.8125 L 390.820313 405.53125 L 391.695313 405.003906 L 391.695313 406.8125 L 392.578125 406.8125 L 392.578125 407.5 L 391.695313 407.5 L 391.695313 410.53125 C 391.691406 410.785156 391.707031 410.945313 391.742188 411.015625 C 391.769531 411.085938 391.820313 411.144531 391.890625 411.1875 C 391.957031 411.230469 392.058594 411.25 392.191406 411.25 C 392.289063 411.25 392.417969 411.238281 392.578125 411.214844 Z M 392.578125 411.214844 "/>
<path style=" stroke:none;fill-rule:nonzero;fill:rgb(0%,0%,0%);fill-opacity:1;" d="M 395.339844 414.105469 C 394.847656 413.488281 394.4375 412.777344 394.105469 411.957031 C 393.769531 411.140625 393.601563 410.289063 393.605469 409.40625 C 393.601563 408.636719 393.726563 407.894531 393.980469 407.179688 C 394.269531 406.359375 394.722656 405.539063 395.339844 404.71875 L 395.96875 404.71875 C 395.574219 405.398438 395.3125 405.882813 395.1875 406.171875 C 394.984375 406.621094 394.828125 407.089844 394.71875 407.578125 C 394.574219 408.1875 394.503906 408.800781 394.507813 409.414063 C 394.503906 410.984375 394.992188 412.542969 395.96875 414.105469 Z M 395.339844 414.105469 "/>
<path style=" stroke:none;fill-rule:nonzero;fill:rgb(0%,0%,0%);fill-opacity:1;" d="M 396.414063 408.46875 C 396.410156 407.625 396.496094 406.945313 396.675781 406.425781 C 396.847656 405.914063 397.109375 405.515625 397.453125 405.234375 C 397.796875 404.957031 398.226563 404.816406 398.75 404.8125 C 399.128906 404.816406 399.464844 404.894531 399.757813 405.046875 C 400.046875 405.203125 400.289063 405.425781 400.476563 405.714844 C 400.664063 406.007813 400.8125 406.363281 400.921875 406.777344 C 401.027344 407.199219 401.078125 407.761719 401.082031 408.46875 C 401.078125 409.3125 400.992188 409.992188 400.824219 410.503906 C 400.648438 411.023438 400.390625 411.421875 400.050781 411.699219 C 399.703125 411.980469 399.269531 412.117188 398.75 412.121094 C 398.054688 412.117188 397.515625 411.871094 397.125 411.378906 C 396.648438 410.785156 396.410156 409.816406 396.414063 408.46875 Z M 397.320313 408.46875 C 397.316406 409.648438 397.453125 410.429688 397.730469 410.816406 C 398.003906 411.207031 398.34375 411.402344 398.75 411.398438 C 399.148438 411.402344 399.488281 411.207031 399.765625 410.8125 C 400.039063 410.425781 400.175781 409.644531 400.179688 408.46875 C 400.175781 407.292969 400.039063 406.511719 399.765625 406.121094 C 399.488281 405.738281 399.144531 405.542969 398.738281 405.539063 C 398.332031 405.542969 398.011719 405.714844 397.773438 406.054688 C 397.46875 406.492188 397.316406 407.296875 397.320313 408.46875 Z M 397.320313 408.46875 "/>
<path style=" stroke:none;fill-rule:nonzero;fill:rgb(0%,0%,0%);fill-opacity:1;" d="M 402.90625 412 L 402.90625 411 L 403.910156 411 L 403.910156 412 Z M 402.90625 412 "/>
<path style=" stroke:none;fill-rule:nonzero;fill:rgb(0%,0%,0%);fill-opacity:1;" d="M 405.414063 408.46875 C 405.410156 407.625 405.496094 406.945313 405.675781 406.425781 C 405.847656 405.914063 406.109375 405.515625 406.453125 405.234375 C 406.796875 404.957031 407.226563 404.816406 407.75 404.8125 C 408.128906 404.816406 408.464844 404.894531 408.757813 405.046875 C 409.046875 405.203125 409.289063 405.425781 409.476563 405.714844 C 409.664063 406.007813 409.8125 406.363281 409.921875 406.777344 C 410.027344 407.199219 410.078125 407.761719 410.082031 408.46875 C 410.078125 409.3125 409.992188 409.992188 409.824219 410.503906 C 409.648438 411.023438 409.390625 411.421875 409.050781 411.699219 C 408.703125 411.980469 408.269531 412.117188 407.75 412.121094 C 407.054688 412.117188 406.515625 411.871094 406.125 411.378906 C 405.648438 410.785156 405.410156 409.816406 405.414063 408.46875 Z M 406.320313 408.46875 C 406.316406 409.648438 406.453125 410.429688 406.730469 410.816406 C 407.003906 411.207031 407.34375 411.402344 407.75 411.398438 C 408.148438 411.402344 408.488281 411.207031 408.765625 410.8125 C 409.039063 410.425781 409.175781 409.644531 409.179688 408.46875 C 409.175781 407.292969 409.039063 406.511719 408.765625 406.121094 C 408.488281 405.738281 408.144531 405.542969 407.738281 405.539063 C 407.332031 405.542969 407.011719 405.714844 406.773438 406.054688 C 406.46875 406.492188 406.316406 407.296875 406.320313 408.46875 Z M 406.320313 408.46875 "/>
<path style=" stroke:none;fill-rule:nonzero;fill:rgb(0%,0%,0%);fill-opacity:1;" d="M 411.890625 412 L 411.890625 411 L 412.890625 411 L 412.890625 412 C 412.886719 412.367188 412.820313 412.664063 412.695313 412.890625 C 412.5625 413.117188 412.355469 413.289063 412.074219 413.414063 L 411.828125 413.039063 C 412.011719 412.953125 412.148438 412.835938 412.238281 412.679688 C 412.324219 412.523438 412.375 412.296875 412.386719 412 Z M 411.890625 412 "/>
<path style=" stroke:none;fill-rule:nonzero;fill:rgb(0%,0%,0%);fill-opacity:1;" d="M 417.414063 408.46875 C 417.410156 407.625 417.496094 406.945313 417.675781 406.425781 C 417.847656 405.914063 418.109375 405.515625 418.453125 405.234375 C 418.796875 404.957031 419.226563 404.816406 419.75 404.8125 C 420.128906 404.816406 420.464844 404.894531 420.757813 405.046875 C 421.046875 405.203125 421.289063 405.425781 421.476563 405.714844 C 421.664063 406.007813 421.8125 406.363281 421.921875 406.777344 C 422.027344 407.199219 422.078125 407.761719 422.082031 408.46875 C 422.078125 409.3125 421.992188 409.992188 421.824219 410.503906 C 421.648438 411.023438 421.390625 411.421875 421.050781 411.699219 C 420.703125 411.980469 420.269531 412.117188 419.75 412.121094 C 419.054688 412.117188 418.515625 411.871094 418.125 411.378906 C 417.648438 410.785156 417.410156 409.816406 417.414063 408.46875 Z M 418.320313 408.46875 C 418.316406 409.648438 418.453125 410.429688 418.730469 410.816406 C 419.003906 411.207031 419.34375 411.402344 419.75 411.398438 C 420.148438 411.402344 420.488281 411.207031 420.765625 410.8125 C 421.039063 410.425781 421.175781 409.644531 421.179688 408.46875 C 421.175781 407.292969 421.039063 406.511719 420.765625 406.121094 C 420.488281 405.738281 420.144531 405.542969 419.738281 405.539063 C 419.332031 405.542969 419.011719 405.714844 418.773438 406.054688 C 418.46875 406.492188 418.316406 407.296875 418.320313 408.46875 Z M 418.320313 408.46875 "/>
<path style=" stroke:none;fill-rule:nonzero;fill:rgb(0%,0%,0%);fill-opacity:1;" d="M 423.90625 412 L 423.90625 411 L 424.910156 411 L 424.910156 412 Z M 423.90625 412 "/>
<path style=" stroke:none;fill-rule:nonzero;fill:rgb(0%,0%,0%);fill-opacity:1;" d="M 426.414063 408.46875 C 426.410156 407.625 426.496094 406.945313 426.675781 406.425781 C 426.847656 405.914063 427.109375 405.515625 427.453125 405.234375 C 427.796875 404.957031 428.226563 404.816406 428.75 404.8125 C 429.128906 404.816406 429.464844 404.894531 429.757813 405.046875 C 430.046875 405.203125 430.289063 405.425781 430.476563 405.714844 C 430.664063 406.007813 430.8125 406.363281 430.921875 406.777344 C 431.027344 407.199219 431.078125 407.761719 431.082031 408.46875 C 431.078125 409.3125 430.992188 409.992188 430.824219 410.503906 C 430.648438 411.023438 430.390625 411.421875 430.050781 411.699219 C 429.703125 411.980469 429.269531 412.117188 428.75 412.121094 C 428.054688 412.117188 427.515625 411.871094 427.125 411.378906 C 426.648438 410.785156 426.410156 409.816406 426.414063 408.46875 Z M 427.320313 408.46875 C 427.316406 409.648438 427.453125 410.429688 427.730469 410.816406 C 428.003906 411.207031 428.34375 411.402344 428.75 411.398438 C 429.148438 411.402344 429.488281 411.207031 429.765625 410.8125 C 430.039063 410.425781 430.175781 409.644531 430.179688 408.46875 C 430.175781 407.292969 430.039063 406.511719 429.765625 406.121094 C 429.488281 405.738281 429.144531 405.542969 428.738281 405.539063 C 428.332031 405.542969 428.011719 405.714844 427.773438 406.054688 C 427.46875 406.492188 427.316406 407.296875 427.320313 408.46875 Z M 427.320313 408.46875 "/>
<path style=" stroke:none;fill-rule:nonzero;fill:rgb(0%,0%,0%);fill-opacity:1;" d="M 433.234375 414.105469 L 432.605469 414.105469 C 433.574219 412.542969 434.0625 410.984375 434.066406 409.414063 C 434.0625 408.804688 433.992188 408.195313 433.855469 407.589844 C 433.742188 407.105469 433.585938 406.636719 433.390625 406.183594 C 433.261719 405.894531 433 405.40625 432.605469 404.71875 L 433.234375 404.71875 C 433.84375 405.539063 434.296875 406.359375 434.59375 407.179688 C 434.839844 407.894531 434.964844 408.636719 434.96875 409.40625 C 434.964844 410.289063 434.796875 411.140625 434.460938 411.957031 C 434.125 412.777344 433.714844 413.488281 433.234375 414.105469 Z M 433.234375 414.105469 "/>
<path style="fill:none;stroke-width:2;stroke-linecap:butt;stroke-linejoin:miter;stroke:rgb(0%,0%,0%);stroke-opacity:1;stroke-miterlimit:10;" d="M 0 0 L 0 5 " transform="matrix(1,0,0,1,400,400)"/>
<path style="fill:none;stroke-width:4;stroke-linecap:round;stroke-linejoin:miter;stroke:rgb(64.705882%,16.470588%,16.470588%);stroke-opacity:1;stroke-dasharray:4,20;stroke-miterlimit:10;" d="M 0 376 L -348 376 C -359.046875 376 -368 367.046875 -368 356 L -368 -356 C -368 -367.046875 -359.046875 -376 -348 -376 L 348 -376 C 359.046875 -376 368 -367.046875 368 -356 L 368 356 C 368 367.046875 359.046875 376 348 376 Z M 0 376 " transform="matrix(1,0,0,1,400,400)"/>
</g>
</svg>
