<?xml version="1.0" encoding="UTF-8"?>
<svg xmlns="http://www.w3.org/2000/svg" xmlns:xlink="http://www.w3.org/1999/xlink" width="800pt" height="784pt" viewBox="0 0 800 784" version="1.1">
<g id="surface79">
<path style="fill:none;stroke-width:2;stroke-linecap:butt;stroke-linejoin:miter;stroke:rgb(0%,0%,0%);stroke-opacity:0.501961;stroke-miterlimit:10;" d="M 49.999999 0 C 49.999999 27.613366 27.613366 49.999999 0 49.999999 C -27.613366 49.999999 -49.999999 27.613366 -49.999999 0 C -49.999999 -27.613366 -27.613366 -49.999999 0 -49.999999 C 27.613366 -49.999999 49.999999 -27.613366 49.999999 0 Z M 49.999999 0 " transform="matrix(14.72,0,0,14.72,32,24)"/>
<path style="fill:none;stroke-width:2;stroke-linecap:butt;stroke-linejoin:miter;stroke:rgb(0%,0%,0%);stroke-opacity:0.501961;stroke-miterlimit:10;" d="M 0 0 L 49.999999 0 " transform="matrix(14.72,0,0,14.72,32,24)"/>
<path style="fill:none;stroke-width:2;stroke-linecap:butt;stroke-linejoin:miter;stroke:rgb(0%,0%,0%);stroke-opacity:0.501961;stroke-miterlimit:10;" d="M 0 0 L 0 49.999999 " transform="matrix(14.72,0,0,14.72,32,24)"/>
<path style=" stroke:none;fill-rule:nonzero;fill:rgb(0%,0%,0%);fill-opacity:1;" d="M -20.785156 148.660156 C -20.84375 136.238281 -19.578125 126.234375 -16.933594 118.585938 C -14.402344 111.054688 -10.550781 105.191406 -5.488281 101.050781 C -0.429688 96.96875 5.894531 94.898438 13.601563 94.839844 C 19.175781 94.898438 24.121094 96.046875 28.433594 98.289063 C 32.691406 100.589844 36.253906 103.867188 39.015625 108.121094 C 41.773438 112.433594 43.960938 117.667969 45.570313 123.761719 C 47.121094 129.972656 47.871094 138.253906 47.925781 148.660156 C 47.871094 161.078125 46.605469 171.085938 44.132813 178.617188 C 41.546875 186.265625 37.75 192.128906 32.746094 196.210938 C 27.628906 200.351563 21.246094 202.363281 13.601563 202.421875 C 3.363281 202.363281 -4.570313 198.742188 -10.320313 191.496094 C -17.335938 182.757813 -20.84375 168.496094 -20.785156 148.660156 Z M -7.445313 148.660156 C -7.503906 166.023438 -5.488281 177.523438 -1.40625 183.21875 C 2.617188 188.96875 7.621094 191.84375 13.601563 191.785156 C 19.464844 191.84375 24.46875 188.96875 28.550781 183.160156 C 32.574219 177.46875 34.585938 165.96875 34.644531 148.660156 C 34.585938 131.351563 32.574219 119.851563 28.550781 114.101563 C 24.46875 108.46875 19.40625 105.59375 13.425781 105.535156 C 7.449219 105.59375 2.734375 108.121094 -0.773438 113.125 C -5.261719 119.566406 -7.503906 131.410156 -7.445313 148.660156 Z M -7.445313 148.660156 "/>
<path style=" stroke:none;fill-rule:nonzero;fill:rgb(0%,0%,0%);fill-opacity:1;" d="M 74.78125 200.640625 L 74.78125 185.921875 L 89.558594 185.921875 L 89.558594 200.640625 Z M 74.78125 200.640625 "/>
<path style=" stroke:none;fill-rule:nonzero;fill:rgb(0%,0%,0%);fill-opacity:1;" d="M 111.695313 148.660156 C 111.636719 136.238281 112.902344 126.234375 115.546875 118.585938 C 118.078125 111.054688 121.929688 105.191406 126.988281 101.050781 C 132.050781 96.96875 138.375 94.898438 146.078125 94.839844 C 151.65625 94.898438 156.601563 96.046875 160.914063 98.289063 C 165.171875 100.589844 168.734375 103.867188 171.496094 108.121094 C 174.253906 112.433594 176.441406 117.667969 178.050781 123.761719 C 179.601563 129.972656 180.351563 138.253906 180.40625 148.660156 C 180.351563 161.078125 179.085938 171.085938 176.613281 178.617188 C 174.023438 186.265625 170.230469 192.128906 165.226563 196.210938 C 160.109375 200.351563 153.726563 202.363281 146.078125 202.421875 C 135.84375 202.363281 127.910156 198.742188 122.160156 191.496094 C 115.144531 182.757813 111.636719 168.496094 111.695313 148.660156 Z M 125.035156 148.660156 C 124.976563 166.023438 126.988281 177.523438 131.074219 183.21875 C 135.097656 188.96875 140.101563 191.84375 146.078125 191.785156 C 151.945313 191.84375 156.949219 188.96875 161.03125 183.160156 C 165.054688 177.46875 167.066406 165.96875 167.125 148.660156 C 167.066406 131.351563 165.054688 119.851563 161.03125 114.101563 C 156.949219 108.46875 151.886719 105.59375 145.90625 105.535156 C 139.925781 105.59375 135.210938 108.121094 131.703125 113.125 C 127.21875 119.566406 124.976563 131.410156 125.035156 148.660156 Z M 125.035156 148.660156 "/>
<path style=" stroke:none;fill-rule:nonzero;fill:rgb(0%,0%,0%);fill-opacity:1;" d="M 207.03125 200.640625 L 207.03125 185.921875 L 221.75 185.921875 L 221.75 200.640625 C 221.691406 206.046875 220.714844 210.414063 218.875 213.75 C 216.921875 217.085938 213.871094 219.613281 209.734375 221.453125 L 206.109375 215.933594 C 208.8125 214.671875 210.824219 212.945313 212.148438 210.644531 C 213.414063 208.34375 214.160156 205.011719 214.332031 200.640625 Z M 207.03125 200.640625 "/>
<path style=" stroke:none;fill-rule:nonzero;fill:rgb(0%,0%,0%);fill-opacity:1;" d="M 288.335938 148.660156 C 288.277344 136.238281 289.542969 126.234375 292.1875 118.585938 C 294.71875 111.054688 298.570313 105.191406 303.628906 101.050781 C 308.691406 96.96875 315.015625 94.898438 322.71875 94.839844 C 328.296875 94.898438 333.242188 96.046875 337.554688 98.289063 C 341.808594 100.589844 345.375 103.867188 348.136719 108.121094 C 350.894531 112.433594 353.078125 117.667969 354.691406 123.761719 C 356.242188 129.972656 356.988281 138.253906 357.046875 148.660156 C 356.988281 161.078125 355.726563 171.085938 353.253906 178.617188 C 350.664063 186.265625 346.871094 192.128906 341.867188 196.210938 C 336.75 200.351563 330.367188 202.363281 322.71875 202.421875 C 312.484375 202.363281 304.550781 198.742188 298.800781 191.496094 C 291.785156 182.757813 288.277344 168.496094 288.335938 148.660156 Z M 301.675781 148.660156 C 301.617188 166.023438 303.628906 177.523438 307.710938 183.21875 C 311.738281 188.96875 316.738281 191.84375 322.71875 191.785156 C 328.585938 191.84375 333.585938 188.96875 337.671875 183.160156 C 341.695313 177.46875 343.707031 165.96875 343.765625 148.660156 C 343.707031 131.351563 341.695313 119.851563 337.671875 114.101563 C 333.585938 108.46875 328.527344 105.59375 322.546875 105.535156 C 316.566406 105.59375 311.851563 108.121094 308.34375 113.125 C 303.859375 119.566406 301.617188 131.410156 301.675781 148.660156 Z M 301.675781 148.660156 "/>
<path style=" stroke:none;fill-rule:nonzero;fill:rgb(0%,0%,0%);fill-opacity:1;" d="M 383.898438 200.640625 L 383.898438 185.921875 L 398.675781 185.921875 L 398.675781 200.640625 Z M 383.898438 200.640625 "/>
<path style=" stroke:none;fill-rule:nonzero;fill:rgb(0%,0%,0%);fill-opacity:1;" d="M 420.816406 148.660156 C 420.757813 136.238281 422.023438 126.234375 424.667969 118.585938 C 427.199219 111.054688 431.050781 105.191406 436.109375 101.050781 C 441.171875 96.96875 447.496094 94.898438 455.199219 94.839844 C 460.777344 94.898438 465.722656 96.046875 470.035156 98.289063 C 474.289063 100.589844 477.855469 103.867188 480.613281 108.121094 C 483.375 112.433594 485.558594 117.667969 487.171875 123.761719 C 488.722656 129.972656 489.46875 138.253906 489.527344 148.660156 C 489.46875 161.078125 488.203125 171.085938 485.734375 178.617188 C 483.144531 186.265625 479.351563 192.128906 474.347656 196.210938 C 469.230469 200.351563 462.847656 202.363281 455.199219 202.421875 C 444.964844 202.363281 437.03125 198.742188 431.28125 191.496094 C 424.265625 182.757813 420.757813 168.496094 420.816406 148.660156 Z M 434.15625 148.660156 C 434.097656 166.023438 436.109375 177.523438 440.191406 183.21875 C 444.21875 188.96875 449.21875 191.84375 455.199219 191.785156 C 461.066406 191.84375 466.066406 188.96875 470.148438 183.160156 C 474.175781 177.46875 476.1875 165.96875 476.246094 148.660156 C 476.1875 131.351563 474.175781 119.851563 470.148438 114.101563 C 466.066406 108.46875 461.007813 105.59375 455.027344 105.535156 C 449.046875 105.59375 444.332031 108.121094 440.824219 113.125 C 436.339844 119.566406 434.097656 131.410156 434.15625 148.660156 Z M 434.15625 148.660156 "/>
<path style=" stroke:none;fill-rule:nonzero;fill:rgb(0%,0%,0%);fill-opacity:1;" d="M 521.210938 231.632813 L 511.953125 231.632813 C 526.210938 208.632813 533.398438 185.691406 533.457031 162.574219 C 533.398438 153.605469 532.363281 144.636719 530.351563 135.722656 C 528.683594 128.59375 526.386719 121.691406 523.511719 115.023438 C 521.613281 110.765625 517.761719 103.578125 511.953125 93.460938 L 521.210938 93.460938 C 530.179688 105.535156 536.851563 117.609375 541.21875 129.683594 C 544.84375 140.207031 546.683594 151.132813 546.738281 162.460938 C 546.683594 175.453125 544.210938 187.988281 539.265625 200.007813 C 534.320313 212.082031 528.28125 222.546875 521.210938 231.632813 Z M 521.210938 231.632813 "/>
<path style="fill:none;stroke-width:2;stroke-linecap:butt;stroke-linejoin:miter;stroke:rgb(0%,0%,0%);stroke-opacity:1;stroke-miterlimit:10;" d="M 0 0 L 0 5.000106 " transform="matrix(14.72,0,0,14.72,32,24)"/>
<path style="fill:none;stroke-width:4;stroke-linecap:round;stroke-linejoin:miter;stroke:rgb(64.705882%,16.470588%,16.470588%);stroke-opacity:1;stroke-dasharray:4,20;stroke-miterlimit:10;" d="M 0 375.999908 L -347.999898 375.999908 C -359.046996 375.999908 -368.000057 367.046847 -368.000057 356.000015 L -368.000057 -356.000015 C -368.000057 -367.046847 -359.046996 -375.999908 -347.999898 -375.999908 L 347.999898 -375.999908 C 359.046996 -375.999908 368.000057 -367.046847 368.000057 -356.000015 L 368.000057 356.000015 C 368.000057 367.046847 359.046996 375.999908 347.999898 375.999908 Z M 0 375.999908 " transform="matrix(14.72,0,0,14.72,32,24)"/>
</g>
</svg>
