<?xml version="1.0" encoding="UTF-8"?>
<svg xmlns="http://www.w3.org/2000/svg" xmlns:xlink="http://www.w3.org/1999/xlink" width="795pt" height="795pt" viewBox="0 0 795 795" version="1.1">
<g id="surface277">
<path style="fill:none;stroke-width:2;stroke-linecap:butt;stroke-linejoin:miter;stroke:rgb(0%,0%,0%);stroke-opacity:0.501961;stroke-miterlimit:10;" d="M 50.000108 0.0000960153 C 50.000108 27.613203 27.613203 50.000108 0.0000960153 50.000108 C -27.613277 50.000108 -49.999916 27.613203 -49.999916 0.0000960153 C -49.999916 -27.613277 -27.613277 -49.999916 0.0000960153 -49.999916 C 27.613203 -49.999916 50.000108 -27.613277 50.000108 0.0000960153 " transform="matrix(14.719996,0,0,14.719996,29.439993,29.439993)"/>
<path style="fill:none;stroke-width:2;stroke-linecap:butt;stroke-linejoin:miter;stroke:rgb(0%,0%,0%);stroke-opacity:0.501961;stroke-miterlimit:10;" d="M 0.0000960153 0.0000960153 L 50.000108 0.0000960153 " transform="matrix(14.719996,0,0,14.719996,29.439993,29.439993)"/>
<path style="fill:none;stroke-width:2;stroke-linecap:butt;stroke-linejoin:miter;stroke:rgb(0%,0%,0%);stroke-opacity:0.501961;stroke-miterlimit:10;" d="M 0.0000960153 0.0000960153 L 0.0000960153 50.000108 " transform="matrix(14.719996,0,0,14.719996,29.439993,29.439993)"/>
<path style=" stroke:none;fill-rule:nonzero;fill:rgb(0%,0%,0%);fill-opacity:1;" d="M -23.34375 154.101563 C -23.402344 141.679688 -22.136719 131.675781 -19.492188 124.027344 C -16.960938 116.496094 -13.109375 110.628906 -8.050781 106.488281 C -2.988281 102.40625 3.335938 100.335938 11.039063 100.28125 C 16.617188 100.335938 21.5625 101.488281 25.875 103.730469 C 30.128906 106.03125 33.695313 109.308594 36.453125 113.5625 C 39.214844 117.875 41.398438 123.109375 43.011719 129.203125 C 44.5625 135.414063 45.308594 143.691406 45.367188 154.101563 C 45.308594 166.519531 44.046875 176.523438 41.574219 184.058594 C 38.984375 191.703125 35.191406 197.570313 30.1875 201.652344 C 25.070313 205.792969 18.6875 207.804688 11.039063 207.863281 C 0.804688 207.804688 -7.128906 204.183594 -12.878906 196.9375 C -19.894531 188.199219 -23.402344 173.9375 -23.34375 154.101563 Z M -10.003906 154.101563 C -10.0625 171.464844 -8.050781 182.964844 -3.96875 188.65625 C 0.0585938 194.40625 5.058594 197.28125 11.039063 197.226563 C 16.90625 197.28125 21.90625 194.40625 25.988281 188.601563 C 30.015625 182.90625 32.027344 171.40625 32.085938 154.101563 C 32.027344 136.792969 30.015625 125.292969 25.988281 119.542969 C 21.90625 113.90625 16.847656 111.03125 10.867188 110.976563 C 4.886719 111.03125 0.171875 113.5625 -3.335938 118.566406 C -7.820313 125.003906 -10.0625 136.851563 -10.003906 154.101563 Z M -10.003906 154.101563 "/>
<path style=" stroke:none;fill-rule:nonzero;fill:rgb(0%,0%,0%);fill-opacity:1;" d="M 72.21875 206.078125 L 72.21875 191.359375 L 86.996094 191.359375 L 86.996094 206.078125 Z M 72.21875 206.078125 "/>
<path style=" stroke:none;fill-rule:nonzero;fill:rgb(0%,0%,0%);fill-opacity:1;" d="M 109.136719 154.101563 C 109.078125 141.679688 110.34375 131.675781 112.988281 124.027344 C 115.515625 116.496094 119.371094 110.628906 124.429688 106.488281 C 129.488281 102.40625 135.816406 100.335938 143.519531 100.28125 C 149.097656 100.335938 154.042969 101.488281 158.355469 103.730469 C 162.609375 106.03125 166.175781 109.308594 168.933594 113.5625 C 171.695313 117.875 173.878906 123.109375 175.488281 129.203125 C 177.042969 135.414063 177.789063 143.691406 177.847656 154.101563 C 177.789063 166.519531 176.523438 176.523438 174.050781 184.058594 C 171.464844 191.703125 167.671875 197.570313 162.667969 201.652344 C 157.550781 205.792969 151.167969 207.804688 143.519531 207.863281 C 133.285156 207.804688 125.351563 204.183594 119.601563 196.9375 C 112.585938 188.199219 109.078125 173.9375 109.136719 154.101563 Z M 122.476563 154.101563 C 122.417969 171.464844 124.429688 182.964844 128.511719 188.65625 C 132.539063 194.40625 137.539063 197.28125 143.519531 197.226563 C 149.386719 197.28125 154.386719 194.40625 158.46875 188.601563 C 162.496094 182.90625 164.507813 171.40625 164.566406 154.101563 C 164.507813 136.792969 162.496094 125.292969 158.46875 119.542969 C 154.386719 113.90625 149.328125 111.03125 143.347656 110.976563 C 137.367188 111.03125 132.652344 113.5625 129.144531 118.566406 C 124.660156 125.003906 122.417969 136.851563 122.476563 154.101563 Z M 122.476563 154.101563 "/>
<path style=" stroke:none;fill-rule:nonzero;fill:rgb(0%,0%,0%);fill-opacity:1;" d="M 204.46875 206.078125 L 204.46875 191.359375 L 219.191406 191.359375 L 219.191406 206.078125 C 219.132813 211.484375 218.15625 215.855469 216.316406 219.191406 C 214.359375 222.523438 211.3125 225.054688 207.171875 226.894531 L 203.550781 221.375 C 206.253906 220.109375 208.265625 218.386719 209.585938 216.085938 C 210.851563 213.785156 211.601563 210.449219 211.773438 206.078125 Z M 204.46875 206.078125 "/>
<path style=" stroke:none;fill-rule:nonzero;fill:rgb(0%,0%,0%);fill-opacity:1;" d="M 285.773438 154.101563 C 285.71875 141.679688 286.984375 131.675781 289.628906 124.027344 C 292.15625 116.496094 296.011719 110.628906 301.070313 106.488281 C 306.128906 102.40625 312.453125 100.335938 320.160156 100.28125 C 325.738281 100.335938 330.683594 101.488281 334.996094 103.730469 C 339.25 106.03125 342.816406 109.308594 345.574219 113.5625 C 348.335938 117.875 350.519531 123.109375 352.128906 129.203125 C 353.683594 135.414063 354.429688 143.691406 354.488281 154.101563 C 354.429688 166.519531 353.164063 176.523438 350.691406 184.058594 C 348.105469 191.703125 344.308594 197.570313 339.308594 201.652344 C 334.191406 205.792969 327.808594 207.804688 320.160156 207.863281 C 309.925781 207.804688 301.988281 204.183594 296.238281 196.9375 C 289.226563 188.199219 285.71875 173.9375 285.773438 154.101563 Z M 299.113281 154.101563 C 299.058594 171.464844 301.070313 182.964844 305.152344 188.65625 C 309.175781 194.40625 314.179688 197.28125 320.160156 197.226563 C 326.023438 197.28125 331.027344 194.40625 335.109375 188.601563 C 339.136719 182.90625 341.148438 171.40625 341.203125 154.101563 C 341.148438 136.792969 339.136719 125.292969 335.109375 119.542969 C 331.027344 113.90625 325.96875 111.03125 319.988281 110.976563 C 314.007813 111.03125 309.292969 113.5625 305.785156 118.566406 C 301.300781 125.003906 299.058594 136.851563 299.113281 154.101563 Z M 299.113281 154.101563 "/>
<path style=" stroke:none;fill-rule:nonzero;fill:rgb(0%,0%,0%);fill-opacity:1;" d="M 381.339844 206.078125 L 381.339844 191.359375 L 396.117188 191.359375 L 396.117188 206.078125 Z M 381.339844 206.078125 "/>
<path style=" stroke:none;fill-rule:nonzero;fill:rgb(0%,0%,0%);fill-opacity:1;" d="M 418.253906 154.101563 C 418.199219 141.679688 419.460938 131.675781 422.105469 124.027344 C 424.636719 116.496094 428.488281 110.628906 433.550781 106.488281 C 438.609375 102.40625 444.933594 100.335938 452.640625 100.28125 C 458.21875 100.335938 463.164063 101.488281 467.476563 103.730469 C 471.730469 106.03125 475.292969 109.308594 478.054688 113.5625 C 480.816406 117.875 483 123.109375 484.609375 129.203125 C 486.164063 135.414063 486.910156 143.691406 486.96875 154.101563 C 486.910156 166.519531 485.644531 176.523438 483.171875 184.058594 C 480.585938 191.703125 476.789063 197.570313 471.789063 201.652344 C 466.667969 205.792969 460.289063 207.804688 452.640625 207.863281 C 442.40625 207.804688 434.46875 204.183594 428.71875 196.9375 C 421.703125 188.199219 418.199219 173.9375 418.253906 154.101563 Z M 431.59375 154.101563 C 431.539063 171.464844 433.550781 182.964844 437.632813 188.65625 C 441.65625 194.40625 446.660156 197.28125 452.640625 197.226563 C 458.503906 197.28125 463.507813 194.40625 467.589844 188.601563 C 471.613281 182.90625 473.628906 171.40625 473.683594 154.101563 C 473.628906 136.792969 471.613281 125.292969 467.589844 119.542969 C 463.507813 113.90625 458.449219 111.03125 452.46875 110.976563 C 446.488281 111.03125 441.773438 113.5625 438.265625 118.566406 C 433.78125 125.003906 431.539063 136.851563 431.59375 154.101563 Z M 431.59375 154.101563 "/>
<path style=" stroke:none;fill-rule:nonzero;fill:rgb(0%,0%,0%);fill-opacity:1;" d="M 518.648438 237.074219 L 509.390625 237.074219 C 523.652344 214.074219 530.839844 191.128906 530.898438 168.015625 C 530.839844 159.046875 529.804688 150.074219 527.792969 141.164063 C 526.125 134.03125 523.824219 127.132813 520.949219 120.460938 C 519.050781 116.207031 515.199219 109.019531 509.390625 98.898438 L 518.648438 98.898438 C 527.621094 110.976563 534.289063 123.050781 538.660156 135.125 C 542.28125 145.648438 544.121094 156.574219 544.179688 167.898438 C 544.121094 180.894531 541.648438 193.429688 536.703125 205.449219 C 531.761719 217.523438 525.722656 227.988281 518.648438 237.074219 Z M 518.648438 237.074219 "/>
<path style="fill:none;stroke-width:2;stroke-linecap:butt;stroke-linejoin:miter;stroke:rgb(0%,0%,0%);stroke-opacity:1;stroke-miterlimit:10;" d="M 0.0000960153 0.0000960153 L 0.0000960153 4.999938 " transform="matrix(14.719996,0,0,14.719996,29.439993,29.439993)"/>
<path style="fill:none;stroke-width:4;stroke-linecap:round;stroke-linejoin:miter;stroke:rgb(64.705882%,16.470588%,16.470588%);stroke-opacity:1;stroke-dasharray:4,20;stroke-miterlimit:10;" d="M 0.0000960153 376.000102 L -347.999892 376.000102 C -359.046993 376.000102 -368.000056 367.046773 -368.000056 355.999938 L -368.000056 -356.000011 C -368.000056 -367.046846 -359.046993 -375.99991 -347.999892 -375.99991 L 348.000084 -375.99991 C 359.04692 -375.99991 367.999983 -367.046846 367.999983 -356.000011 L 367.999983 355.999938 C 367.999983 367.046773 359.04692 376.000102 348.000084 376.000102 Z M 0.0000960153 376.000102 " transform="matrix(14.719996,0,0,14.719996,29.439993,29.439993)"/>
</g>
</svg>
